<svg width="49" height="49" viewBox="0 0 49 49" fill="none" xmlns="http://www.w3.org/2000/svg">
<g clip-path="url(#clip0_216_730)">
<mask id="mask0_216_730" style="mask-type:luminance" maskUnits="userSpaceOnUse" x="0" y="0" width="49" height="49">
<path d="M24.5 49C38.031 49 49 38.031 49 24.5C49 10.969 38.031 0 24.5 0C10.969 0 0 10.969 0 24.5C0 38.031 10.969 49 24.5 49Z" fill="white"/>
</mask>
<g mask="url(#mask0_216_730)">
<path d="M-12.3223 0H61.3247V49.098H-12.3223V0Z" fill="#F89939"/>
</g>
<mask id="mask1_216_730" style="mask-type:luminance" maskUnits="userSpaceOnUse" x="0" y="0" width="49" height="49">
<path d="M24.5 49C38.031 49 49 38.031 49 24.5C49 10.969 38.031 0 24.5 0C10.969 0 0 10.969 0 24.5C0 38.031 10.969 49 24.5 49Z" fill="white"/>
</mask>
<g mask="url(#mask1_216_730)">
<path d="M-12.3223 16.3672H61.3247V32.7332H-12.3223V16.3672Z" fill="white"/>
</g>
<mask id="mask2_216_730" style="mask-type:luminance" maskUnits="userSpaceOnUse" x="0" y="0" width="49" height="49">
<path d="M24.5 49C38.031 49 49 38.031 49 24.5C49 10.969 38.031 0 24.5 0C10.969 0 0 10.969 0 24.5C0 38.031 10.969 49 24.5 49Z" fill="white"/>
</mask>
<g mask="url(#mask2_216_730)">
<path d="M-12.3223 32.7324H61.3247V49.0984H-12.3223V32.7324Z" fill="#1E8943"/>
</g>
<mask id="mask3_216_730" style="mask-type:luminance" maskUnits="userSpaceOnUse" x="0" y="0" width="49" height="49">
<path d="M24.5 49C38.031 49 49 38.031 49 24.5C49 10.969 38.031 0 24.5 0C10.969 0 0 10.969 0 24.5C0 38.031 10.969 49 24.5 49Z" fill="white"/>
</mask>
<g mask="url(#mask3_216_730)">
<path d="M24.4995 31.0948C28.115 31.0948 31.0459 28.1638 31.0459 24.5484C31.0459 20.9329 28.115 18.002 24.4995 18.002C20.884 18.002 17.9531 20.9329 17.9531 24.5484C17.9531 28.1638 20.884 31.0948 24.4995 31.0948Z" fill="#2A2C7A"/>
</g>
<mask id="mask4_216_730" style="mask-type:luminance" maskUnits="userSpaceOnUse" x="0" y="0" width="49" height="49">
<path d="M24.5 49C38.031 49 49 38.031 49 24.5C49 10.969 38.031 0 24.5 0C10.969 0 0 10.969 0 24.5C0 38.031 10.969 49 24.5 49Z" fill="white"/>
</mask>
<g mask="url(#mask4_216_730)">
<path d="M28.8639 20.84C28.7637 20.7221 28.6597 20.6074 28.5504 20.498L26.2591 23.0671L25.3496 23.7817C25.3903 23.8268 25.4278 23.8747 25.4609 23.9258L26.3863 23.2327L29.46 21.6846C29.3825 21.5505 29.2999 21.4196 29.212 21.2926C29.0869 21.3834 28.9119 21.3591 28.8171 21.2357C28.7228 21.1127 28.7445 20.9376 28.8639 20.84Z" fill="white"/>
<path d="M23.7902 19.1533C23.6361 19.1735 23.4951 19.067 23.4705 18.9144C23.1628 18.9704 22.8633 19.05 22.5748 19.1531C22.6307 19.2978 22.562 19.4613 22.4179 19.5209C22.274 19.5805 22.1096 19.5137 22.0468 19.3718C21.9067 19.4383 21.7702 19.5111 21.6367 19.5884L23.5249 22.466L23.9795 23.529C24.0333 23.5014 24.0894 23.4776 24.1477 23.4587L23.7177 22.386L23.0177 19.0155L24.0971 22.2845L24.261 23.4282C24.3197 23.4157 24.3802 23.4088 24.4418 23.4057L24.304 22.2571L24.5004 18.8203C24.3442 18.8203 24.1899 18.8283 24.0369 18.8406C24.0525 18.9938 23.944 19.1329 23.7902 19.1533Z" fill="white"/>
<path d="M27.8112 20.2327C27.6879 20.1379 27.6636 19.9629 27.7543 19.8378C27.6274 19.7499 27.4965 19.6674 27.3624 19.5898L25.8142 22.6637L25.1211 23.589C25.1722 23.6222 25.2202 23.6596 25.2653 23.7003L25.9799 22.7908L28.549 20.4995C28.4397 20.3902 28.325 20.2862 28.2071 20.186C28.1095 20.3054 27.9344 20.3272 27.8112 20.2327Z" fill="white"/>
<path d="M25.9799 26.308L25.2653 25.3984C25.2202 25.4391 25.1722 25.4766 25.1211 25.5097L25.8142 26.4351L27.3624 29.5089C27.4965 29.4313 27.6273 29.3488 27.7543 29.2609C27.6636 29.1358 27.688 28.9607 27.8112 28.8659C27.9344 28.7715 28.1095 28.7933 28.2071 28.9127C28.3249 28.8124 28.4396 28.7085 28.549 28.5992L25.9799 26.308Z" fill="white"/>
<path d="M26.7914 24.7451L25.6428 24.6073C25.6397 24.6689 25.6328 24.7294 25.6203 24.7881L26.764 24.952L30.0329 26.0314L26.6625 25.3314L25.5898 24.9014C25.5709 24.9598 25.5471 25.0158 25.5195 25.0697L26.5825 25.5242L29.4602 27.4124C29.5374 27.2788 29.6102 27.1424 29.6768 27.0024C29.5348 26.9395 29.468 26.7751 29.5276 26.6313C29.5872 26.4872 29.7508 26.4184 29.8955 26.4743C29.9984 26.1858 30.0781 25.8864 30.134 25.5786C29.9815 25.554 29.875 25.4131 29.8952 25.259C29.9156 25.1053 30.0546 24.9966 30.2079 25.0123C30.2202 24.8593 30.2282 24.705 30.2282 24.5488L26.7914 24.7451Z" fill="white"/>
<path d="M29.8951 23.839C29.875 23.6849 29.9815 23.544 30.134 23.5194C30.0781 23.2116 29.9983 22.9122 29.8954 22.6236C29.7507 22.6796 29.5872 22.6108 29.5275 22.4667C29.4679 22.3228 29.5347 22.1584 29.6767 22.0956C29.6102 21.9555 29.5373 21.8191 29.4601 21.6855L26.5825 23.5737L25.5195 24.0283C25.5471 24.0821 25.5709 24.1382 25.5898 24.1965L26.6625 23.7666L30.0329 23.0666L26.764 24.1459L25.6203 24.3098C25.6328 24.3685 25.6397 24.4291 25.6428 24.4906L26.7914 24.3529L30.2281 24.5492C30.2281 24.393 30.2201 24.2387 30.2078 24.0857C30.0546 24.1013 29.9156 23.9928 29.8951 23.839Z" fill="white"/>
<path d="M26.3863 25.865L25.4609 25.1719C25.4277 25.223 25.3903 25.271 25.3496 25.316L26.2591 26.0306L28.5504 28.5997C28.6597 28.4904 28.7636 28.3756 28.8639 28.2578C28.7445 28.1602 28.7228 27.9851 28.8171 27.862C28.9119 27.7386 29.087 27.7143 29.2121 27.805C29.3 27.678 29.3825 27.5472 29.4601 27.4131L26.3863 25.865Z" fill="white"/>
<path d="M24.5585 23.4057C24.6201 23.4088 24.6806 23.4157 24.7393 23.4282L24.9032 22.2845L25.9825 19.0155L25.2825 22.3859L24.8527 23.4587C24.911 23.4775 24.967 23.5013 25.0209 23.5289L25.4754 22.4659L27.3636 19.5883C27.23 19.5111 27.0936 19.4383 26.9535 19.3718C26.8907 19.5137 26.7263 19.5805 26.5825 19.5209C26.4384 19.4613 26.3695 19.2978 26.4255 19.1531C26.1369 19.05 25.8376 18.9704 25.5298 18.9144C25.5053 19.067 25.3643 19.1735 25.2102 19.1533C25.0564 19.1329 24.9478 18.9939 24.9635 18.8406C24.8105 18.8283 24.6562 18.8203 24.5 18.8203L24.6963 22.257L24.5585 23.4057Z" fill="white"/>
<path d="M23.0202 22.7908L23.7349 23.7004C23.7799 23.6597 23.8279 23.6223 23.879 23.589L23.1859 22.6637L21.6378 19.5898C21.5036 19.6675 21.3728 19.75 21.2458 19.8379C21.3366 19.963 21.3122 20.138 21.1889 20.2328C21.0658 20.3272 20.8907 20.3055 20.7931 20.186C20.6752 20.2863 20.5605 20.3902 20.4512 20.4995L23.0202 22.7908Z" fill="white"/>
<path d="M22.6129 23.2327L23.5382 23.9258C23.5714 23.8747 23.6089 23.8268 23.6496 23.7817L22.74 23.0671L20.4487 20.498C20.3394 20.6074 20.2355 20.7221 20.1352 20.84C20.2547 20.9376 20.2764 21.1127 20.182 21.2358C20.0872 21.3591 19.9122 21.3834 19.7871 21.2927C19.6992 21.4196 19.6167 21.5505 19.5391 21.6847L22.6129 23.2327Z" fill="white"/>
<path d="M24.4418 25.6916C24.3802 25.6886 24.3197 25.6816 24.261 25.6692L24.0971 26.8128L23.0177 30.0817L23.7177 26.7113L24.1477 25.6386C24.0894 25.6198 24.0333 25.5959 23.9795 25.5684L23.5249 26.6314L21.6367 29.509C21.7703 29.5862 21.9067 29.659 22.0468 29.7256C22.1096 29.5837 22.274 29.5168 22.4179 29.5764C22.562 29.636 22.6307 29.7996 22.5748 29.9443C22.8633 30.0473 23.1628 30.127 23.4705 30.1828C23.4951 30.0303 23.636 29.9239 23.7902 29.944C23.9439 29.9644 24.0525 30.1035 24.0368 30.2567C24.1899 30.269 24.3441 30.277 24.5003 30.277L24.304 26.8402L24.4418 25.6916Z" fill="white"/>
<path d="M21.6378 29.5089L23.1859 26.4351L23.879 25.5097C23.8279 25.4765 23.78 25.4391 23.7349 25.3984L23.0202 26.3079L20.4512 28.5992C20.5605 28.7085 20.6752 28.8125 20.7931 28.9127C20.8907 28.7933 21.0658 28.7715 21.1889 28.8659C21.3122 28.9607 21.3366 29.1358 21.2458 29.2609C21.3728 29.3488 21.5036 29.4313 21.6378 29.5089Z" fill="white"/>
<path d="M25.2102 29.944C25.3643 29.9238 25.5052 30.0303 25.5298 30.1828C25.8376 30.1269 26.137 30.0472 26.4255 29.9443C26.3695 29.7996 26.4384 29.636 26.5825 29.5764C26.7263 29.5168 26.8907 29.5836 26.9535 29.7256C27.0936 29.659 27.23 29.5862 27.3636 29.5089L25.4754 26.6314L25.0209 25.5684C24.9671 25.5959 24.9111 25.6198 24.8527 25.6386L25.2826 26.7113L25.9826 30.0817L24.9033 26.8128L24.7393 25.6691C24.6807 25.6816 24.6201 25.6886 24.5585 25.6916L24.6963 26.8402L24.5 30.277C24.6562 30.277 24.8105 30.269 24.9635 30.2566C24.9479 30.1034 25.0564 29.9644 25.2102 29.944Z" fill="white"/>
<path d="M19.3229 27.0024C19.3895 27.1425 19.4622 27.2789 19.5395 27.4124L22.4171 25.5243L23.4801 25.0697C23.4526 25.0159 23.4287 24.9599 23.4098 24.9016L22.3371 25.3314L18.9667 26.0314L22.2356 24.9521L23.3793 24.7881C23.3669 24.7295 23.3599 24.6689 23.3569 24.6073L22.2082 24.7451L18.7715 24.5488C18.7715 24.705 18.7795 24.8593 18.7918 25.0123C18.945 24.9967 19.0841 25.1053 19.1045 25.259C19.1247 25.4131 19.0181 25.5541 18.8656 25.5786C18.9215 25.8864 19.0012 26.1858 19.1042 26.4743C19.249 26.4184 19.4125 26.4872 19.472 26.6313C19.5317 26.7752 19.4648 26.9395 19.3229 27.0024Z" fill="white"/>
<path d="M23.6495 25.316C23.6088 25.271 23.5714 25.223 23.5382 25.1719L22.6129 25.865L19.5391 27.4131C19.6166 27.5472 19.6991 27.6782 19.7871 27.8051C19.9121 27.7144 20.0872 27.7387 20.1819 27.862C20.2764 27.9852 20.2547 28.1602 20.1352 28.2578C20.2354 28.3757 20.3394 28.4904 20.4487 28.5998L22.7399 26.0307L23.6495 25.316Z" fill="white"/>
<path d="M23.3569 24.4907C23.36 24.4291 23.3669 24.3685 23.3794 24.3098L22.2357 24.1459L18.9667 23.0666L22.3372 23.7666L23.4099 24.1965C23.4287 24.1382 23.4526 24.0821 23.4801 24.0283L22.4171 23.5737L19.5396 21.6855C19.4623 21.8191 19.3895 21.9555 19.3229 22.0956C19.4649 22.1584 19.5317 22.3228 19.472 22.4667C19.4125 22.6108 19.249 22.6796 19.1042 22.6236C19.0012 22.9122 18.9215 23.2116 18.8656 23.5194C19.0181 23.5439 19.1246 23.6848 19.1045 23.839C19.0841 23.9928 18.945 24.1013 18.7918 24.0857C18.7795 24.2387 18.7715 24.393 18.7715 24.5492L22.2082 24.3529L23.3569 24.4907Z" fill="white"/>
</g>
</g>
<defs>
<clipPath id="clip0_216_730">
<rect width="49" height="49" fill="white"/>
</clipPath>
</defs>
</svg>
